{"asset":{"version":"2.0","generator":"babylon.js glTF exporter for 3dsmax 2020 v20200312.5"},"scene":0,"scenes":[{"nodes":[0,1,2]}],"nodes":[{"mesh":0,"translation":[-1.58996534,0.0,-0.0660835654],"name":"Box002"},{"mesh":1,"translation":[-1.58996534,0.0,-0.0660835654],"name":"Object001"},{"name":"Default light"}],"meshes":[{"primitives":[{"attributes":{"POSITION":1,"NORMAL":2,"TEXCOORD_0":3},"indices":0,"material":0}],"name":"Box002"},{"primitives":[{"attributes":{"POSITION":5,"NORMAL":6,"TEXCOORD_0":7},"indices":4,"material":0}],"name":"Object001"}],"accessors":[{"bufferView":0,"componentType":5123,"count":1032,"type":"SCALAR","name":"accessorIndices"},{"bufferView":1,"componentType":5126,"count":1032,"max":[2.103724,0.9214438,1.158282],"min":[-0.0635,0.0,-0.0635],"type":"VEC3","name":"accessorPositions"},{"bufferView":1,"byteOffset":12384,"componentType":5126,"count":1032,"type":"VEC3","name":"accessorNormals"},{"bufferView":2,"componentType":5126,"count":1032,"type":"VEC2","name":"accessorUVs"},{"bufferView":0,"byteOffset":2064,"componentType":5123,"count":600,"type":"SCALAR","name":"accessorIndices"},{"bufferView":1,"byteOffset":24768,"componentType":5126,"count":600,"max":[2.416838,1.08088768,1.158282],"min":[-0.376614034,0.9214438,-0.0635],"type":"VEC3","name":"accessorPositions"},{"bufferView":1,"byteOffset":31968,"componentType":5126,"count":600,"type":"VEC3","name":"accessorNormals"},{"bufferView":2,"byteOffset":8256,"componentType":5126,"count":600,"type":"VEC2","name":"accessorUVs"}],"bufferViews":[{"buffer":0,"byteLength":3264,"name":"bufferViewScalar"},{"buffer":0,"byteOffset":3264,"byteLength":39168,"byteStride":12,"name":"bufferViewFloatVec3"},{"buffer":0,"byteOffset":42432,"byteLength":13056,"byteStride":8,"name":"bufferViewFloatVec2"}],"buffers":[{"uri":"bench.bin","byteLength":55488}],"materials":[{"pbrMetallicRoughness":{"baseColorTexture":{"index":0},"metallicFactor":0.0,"roughnessFactor":0.450053632},"name":"01 - Default"}],"textures":[{"sampler":0,"source":0,"name":"bench texture.jpg"}],"images":[{"uri":"bench/bench texture.jpg"}],"samplers":[{"magFilter":9729,"minFilter":9987}]}