{"asset":{"version":"2.0","generator":"babylon.js glTF exporter for 3dsmax 2020 v20200312.5"},"scene":0,"scenes":[{"nodes":[0,1,2]}],"nodes":[{"mesh":0,"translation":[1.6483314,-0.8428482,0.188380718],"scale":[1.0,1.090899,1.0],"name":"Box001"},{"translation":[2.368164,9.212779,3.42659855],"rotation":[-0.707106769,0.0,0.0,0.707106769],"name":"Sky001"},{"translation":[1.27387857,5.9624176,2.6476202],"rotation":[-0.707106769,0.0,0.0,0.707106769],"name":"Omni001"}],"meshes":[{"primitives":[{"attributes":{"POSITION":1,"NORMAL":2,"TEXCOORD_0":3},"indices":0,"material":0}],"name":"Box001"}],"accessors":[{"bufferView":0,"componentType":5123,"count":1512,"type":"SCALAR","name":"accessorIndices"},{"bufferView":1,"componentType":5126,"count":1512,"max":[1.31238568,2.66244745,1.52889514],"min":[-1.31238568,-0.398847342,-0.263733],"type":"VEC3","name":"accessorPositions"},{"bufferView":1,"byteOffset":18144,"componentType":5126,"count":1512,"type":"VEC3","name":"accessorNormals"},{"bufferView":2,"componentType":5126,"count":1512,"type":"VEC2","name":"accessorUVs"}],"bufferViews":[{"buffer":0,"byteLength":3024,"name":"bufferViewScalar"},{"buffer":0,"byteOffset":3024,"byteLength":36288,"byteStride":12,"name":"bufferViewFloatVec3"},{"buffer":0,"byteOffset":39312,"byteLength":12096,"byteStride":8,"name":"bufferViewFloatVec2"}],"buffers":[{"uri":"cube.bin","byteLength":51408}],"materials":[{"pbrMetallicRoughness":{"baseColorTexture":{"index":0},"metallicFactor":0.0,"roughnessFactor":0.217006251},"name":"08 - Default"}],"textures":[{"sampler":0,"source":0,"name":"6 cubelocker.jpg"}],"images":[{"uri":"./6 cubelocker.jpg"}],"samplers":[{"magFilter":9729,"minFilter":9987}]}