{"asset":{"version":"2.0","generator":"babylon.js glTF exporter for 3dsmax 2020 v20200312.5"},"extensionsUsed":["KHR_texture_transform"],"extensionsRequired":["KHR_texture_transform"],"scene":0,"scenes":[{"nodes":[0,1,2,3,4,5,6,7]}],"nodes":[{"mesh":0,"translation":[-0.0755295,-0.0196243953,-1.02643621],"scale":[3.188825,0.67399,2.462671],"name":"Box004"},{"mesh":1,"translation":[3.70377922,0.5563535,-0.5130036],"rotation":[-1.0,2.1855687E-08,-5.96046448E-08,1.94707184E-07],"scale":[0.859878,0.495722,0.667522],"name":"FixedWindo"},{"mesh":2,"translation":[3.70377922,0.5563535,-3.877919],"rotation":[-1.0,2.1855687E-08,-5.96046448E-08,1.94707184E-07],"scale":[0.859878,0.495722,0.667522],"name":"FixedWind0"},{"mesh":3,"translation":[-3.836824,0.5563535,-0.5130036],"rotation":[-1.0,2.1855687E-08,-5.96046448E-08,1.94707184E-07],"scale":[0.859878,0.495722,0.667522],"name":"FixedWind1"},{"mesh":4,"translation":[-3.836824,0.5563535,-3.877919],"rotation":[-1.0,2.1855687E-08,-5.96046448E-08,1.94707184E-07],"scale":[0.859878,0.495722,0.667522],"name":"FixedWind2"},{"mesh":5,"translation":[0.4610672,0.02579347,2.84222078],"rotation":[1.37678782E-07,-0.7071067,0.7071068,1.37678782E-07],"scale":[0.297983,0.045563,0.260445],"name":"PivotDoor1"},{"mesh":6,"translation":[-0.628423631,0.02579347,-4.94156361],"rotation":[0.7071068,2.86960233E-08,-2.86960216E-08,0.7071067],"scale":[0.297983,0.045563,0.260445],"name":"PivotDoor002"},{"name":"Default light"}],"meshes":[{"primitives":[{"attributes":{"POSITION":1,"NORMAL":2,"TEXCOORD_0":3},"indices":0,"material":0},{"attributes":{"POSITION":5,"NORMAL":6,"TEXCOORD_0":7},"indices":4,"material":1},{"attributes":{"POSITION":9,"NORMAL":10,"TEXCOORD_0":11},"indices":8,"material":2},{"attributes":{"POSITION":13,"NORMAL":14,"TEXCOORD_0":15},"indices":12,"material":3},{"attributes":{"POSITION":17,"NORMAL":18,"TEXCOORD_0":19},"indices":16,"material":4},{"attributes":{"POSITION":21,"NORMAL":22,"TEXCOORD_0":23},"indices":20,"material":5}],"name":"Box004"},{"primitives":[{"attributes":{"POSITION":25,"NORMAL":26},"indices":24}],"name":"FixedWindo"},{"primitives":[{"attributes":{"POSITION":28,"NORMAL":29},"indices":27}],"name":"FixedWind0"},{"primitives":[{"attributes":{"POSITION":31,"NORMAL":32},"indices":30}],"name":"FixedWind1"},{"primitives":[{"attributes":{"POSITION":34,"NORMAL":35},"indices":33}],"name":"FixedWind2"},{"primitives":[{"attributes":{"POSITION":37,"NORMAL":38},"indices":36,"material":0},{"attributes":{"POSITION":40,"NORMAL":41},"indices":39,"material":6}],"name":"PivotDoor1"},{"primitives":[{"attributes":{"POSITION":43,"NORMAL":44},"indices":42,"material":0},{"attributes":{"POSITION":46,"NORMAL":47},"indices":45,"material":7}],"name":"PivotDoor002"}],"accessors":[{"bufferView":0,"componentType":5123,"count":660,"type":"SCALAR","name":"accessorIndices"},{"bufferView":1,"componentType":5126,"count":660,"max":[1.37238407,4.325025,1.742637],"min":[-1.372384,2.525231,-1.74696875],"type":"VEC3","name":"accessorPositions"},{"bufferView":1,"byteOffset":7920,"componentType":5126,"count":660,"type":"VEC3","name":"accessorNormals"},{"bufferView":2,"componentType":5126,"count":660,"type":"VEC2","name":"accessorUVs"},{"bufferView":0,"byteOffset":1320,"componentType":5123,"count":834,"type":"SCALAR","name":"accessorIndices"},{"bufferView":1,"byteOffset":15840,"componentType":5126,"count":834,"max":[1.37238407,4.33117628,1.742637],"min":[-1.372384,2.525231,-1.74696875],"type":"VEC3","name":"accessorPositions"},{"bufferView":1,"byteOffset":25848,"componentType":5126,"count":834,"type":"VEC3","name":"accessorNormals"},{"bufferView":2,"byteOffset":5280,"componentType":5126,"count":834,"type":"VEC2","name":"accessorUVs"},{"bufferView":0,"byteOffset":2988,"componentType":5123,"count":3072,"type":"SCALAR","name":"accessorIndices"},{"bufferView":1,"byteOffset":35856,"componentType":5126,"count":3072,"max":[1.204164,4.206575,1.62479758],"min":[-1.20416391,0.0,-1.57874882],"type":"VEC3","name":"accessorPositions"},{"bufferView":1,"byteOffset":72720,"componentType":5126,"count":3072,"type":"VEC3","name":"accessorNormals"},{"bufferView":2,"byteOffset":11952,"componentType":5126,"count":3072,"type":"VEC2","name":"accessorUVs"},{"bufferView":0,"byteOffset":9132,"componentType":5123,"count":138,"type":"SCALAR","name":"accessorIndices"},{"bufferView":1,"byteOffset":109584,"componentType":5126,"count":138,"max":[1.14546978,0.0585088022,1.5787487],"min":[-1.14546967,0.0,-1.53485954],"type":"VEC3","name":"accessorPositions"},{"bufferView":1,"byteOffset":111240,"componentType":5126,"count":138,"type":"VEC3","name":"accessorNormals"},{"bufferView":2,"byteOffset":36528,"componentType":5126,"count":138,"type":"VEC2","name":"accessorUVs"},{"bufferView":0,"byteOffset":9408,"componentType":5123,"count":36,"type":"SCALAR","name":"accessorIndices"},{"bufferView":1,"byteOffset":112896,"componentType":5126,"count":36,"max":[0.5160703,2.50751972,1.62479758],"min":[-0.5160701,1.67168,1.62479758],"type":"VEC3","name":"accessorPositions"},{"bufferView":1,"byteOffset":113328,"componentType":5126,"count":36,"type":"VEC3","name":"accessorNormals"},{"bufferView":2,"byteOffset":37632,"componentType":5126,"count":36,"type":"VEC2","name":"accessorUVs"},{"bufferView":0,"byteOffset":9480,"componentType":5123,"count":6,"type":"SCALAR","name":"accessorIndices"},{"bufferView":1,"byteOffset":113760,"componentType":5126,"count":6,"max":[0.17202346,4.206575,1.59363365],"min":[-0.172023311,2.50751948,1.59363365],"type":"VEC3","name":"accessorPositions"},{"bufferView":1,"byteOffset":113832,"componentType":5126,"count":6,"type":"VEC3","name":"accessorNormals"},{"bufferView":2,"byteOffset":37920,"componentType":5126,"count":6,"type":"VEC2","name":"accessorUVs"},{"bufferView":0,"byteOffset":9492,"componentType":5123,"count":564,"type":"SCALAR","name":"accessorIndices"},{"bufferView":1,"byteOffset":113904,"componentType":5126,"count":564,"max":[0.0762,0.5735831,0.0],"min":[-0.0762,-0.5735832,-3.48896837],"type":"VEC3","name":"accessorPositions"},{"bufferView":1,"byteOffset":120672,"componentType":5126,"count":564,"type":"VEC3","name":"accessorNormals"},{"bufferView":0,"byteOffset":10620,"componentType":5123,"count":564,"type":"SCALAR","name":"accessorIndices"},{"bufferView":1,"byteOffset":127440,"componentType":5126,"count":564,"max":[0.0762,0.5735831,0.0],"min":[-0.0762,-0.5735833,-3.488968],"type":"VEC3","name":"accessorPositions"},{"bufferView":1,"byteOffset":134208,"componentType":5126,"count":564,"type":"VEC3","name":"accessorNormals"},{"bufferView":0,"byteOffset":11748,"componentType":5123,"count":564,"type":"SCALAR","name":"accessorIndices"},{"bufferView":1,"byteOffset":140976,"componentType":5126,"count":564,"max":[0.0762,0.5735831,0.0],"min":[-0.0762,-0.5735833,-3.48896837],"type":"VEC3","name":"accessorPositions"},{"bufferView":1,"byteOffset":147744,"componentType":5126,"count":564,"type":"VEC3","name":"accessorNormals"},{"bufferView":0,"byteOffset":12876,"componentType":5123,"count":564,"type":"SCALAR","name":"accessorIndices"},{"bufferView":1,"byteOffset":154512,"componentType":5126,"count":564,"max":[0.0762,0.5735831,0.0],"min":[-0.0762,-0.5735832,-3.48896837],"type":"VEC3","name":"accessorPositions"},{"bufferView":1,"byteOffset":161280,"componentType":5126,"count":564,"type":"VEC3","name":"accessorNormals"},{"bufferView":0,"byteOffset":14004,"componentType":5123,"count":336,"type":"SCALAR","name":"accessorIndices"},{"bufferView":1,"byteOffset":168048,"componentType":5126,"count":336,"max":[3.70966959,4.02838039,0.0],"min":[-0.0508000962,-0.0254062,-3.06055927],"type":"VEC3","name":"accessorPositions"},{"bufferView":1,"byteOffset":172080,"componentType":5126,"count":336,"type":"VEC3","name":"accessorNormals"},{"bufferView":0,"byteOffset":14676,"componentType":5123,"count":24,"type":"SCALAR","name":"accessorIndices"},{"bufferView":1,"byteOffset":176112,"componentType":5126,"count":24,"max":[3.55726957,0.028575,-0.304799974],"min":[0.1016,0.022225,-2.908159],"type":"VEC3","name":"accessorPositions"},{"bufferView":1,"byteOffset":176400,"componentType":5126,"count":24,"type":"VEC3","name":"accessorNormals"},{"bufferView":0,"byteOffset":14724,"componentType":5123,"count":336,"type":"SCALAR","name":"accessorIndices"},{"bufferView":1,"byteOffset":176688,"componentType":5126,"count":336,"max":[3.70966959,4.02838039,0.0],"min":[-0.0508000962,-0.0254062,-3.06055927],"type":"VEC3","name":"accessorPositions"},{"bufferView":1,"byteOffset":180720,"componentType":5126,"count":336,"type":"VEC3","name":"accessorNormals"},{"bufferView":0,"byteOffset":15396,"componentType":5123,"count":24,"type":"SCALAR","name":"accessorIndices"},{"bufferView":1,"byteOffset":184752,"componentType":5126,"count":24,"max":[3.55726957,0.028575,-0.304799974],"min":[0.1016,0.022225,-2.908159],"type":"VEC3","name":"accessorPositions"},{"bufferView":1,"byteOffset":185040,"componentType":5126,"count":24,"type":"VEC3","name":"accessorNormals"}],"bufferViews":[{"buffer":0,"byteLength":15444,"name":"bufferViewScalar"},{"buffer":0,"byteOffset":15444,"byteLength":185328,"byteStride":12,"name":"bufferViewFloatVec3"},{"buffer":0,"byteOffset":200772,"byteLength":37968,"byteStride":8,"name":"bufferViewFloatVec2"}],"buffers":[{"uri":"soccer.bin","byteLength":238740}],"materials":[{"pbrMetallicRoughness":{"baseColorFactor":[0.7,0.7,0.7,1.0],"metallicFactor":0.0,"roughnessFactor":0.240331292},"name":"Default"},{"pbrMetallicRoughness":{"baseColorFactor":[0.5882353,0.5882353,0.5882353,1.0],"metallicFactor":0.0,"roughnessFactor":0.194283739},"name":"11 - Default"},{"pbrMetallicRoughness":{"baseColorFactor":[0.733333349,0.21960786,0.21960786,1.0],"metallicFactor":0.0,"roughnessFactor":0.7022211},"name":"12 - Default"},{"pbrMetallicRoughness":{"baseColorFactor":[0.101960793,0.5019608,0.129411772,1.0],"metallicFactor":0.0,"roughnessFactor":0.17577447},"name":"13 - Default"},{"pbrMetallicRoughness":{"baseColorTexture":{"index":0,"extensions":{"KHR_texture_transform":{"offset":[-0.4000001,-0.1368168],"scale":[1.80000019,-1.30000007],"texCoord":0}}},"metallicFactor":0.0,"roughnessFactor":0.450053632},"name":"17 - Default"},{"pbrMetallicRoughness":{"baseColorTexture":{"index":1,"extensions":{"KHR_texture_transform":{"offset":[-2.9,-3.0200038],"scale":[6.8,-11.0000019],"texCoord":0}}},"metallicFactor":0.0,"roughnessFactor":0.450053632},"name":"22 - Default"},{"pbrMetallicRoughness":{"baseColorFactor":[0.5882353,0.5882353,0.5882353,1.0],"metallicFactor":0.0,"roughnessFactor":0.165830582},"name":"01 - Default"},{"pbrMetallicRoughness":{"baseColorFactor":[0.5882353,0.5882353,0.5882353,1.0],"metallicFactor":0.0,"roughnessFactor":0.165830582},"name":"01 - Default"}],"textures":[{"sampler":0,"source":0,"name":"sponsor.jpg"},{"sampler":0,"source":1,"name":"new DSC logo.jpg"}],"images":[{"uri":"./sponsor.jpg"},{"uri":"./new DSC logo.jpg"}],"samplers":[{"magFilter":9729,"minFilter":9987}]}