{"asset":{"version":"2.0","generator":"babylon.js glTF exporter for 3dsmax 2020 v20200312.5"},"extensionsUsed":["KHR_texture_transform"],"extensionsRequired":["KHR_texture_transform"],"scene":0,"scenes":[{"nodes":[0,1,2,3,4,5,6,7,8,9]}],"nodes":[{"mesh":0,"translation":[0.2463276,0.0,2.867204],"rotation":[0.0,0.7071068,0.0,0.7071067],"scale":[0.689225,0.733448,0.911483],"name":"Box001"},{"mesh":1,"translation":[-0.6791225,0.0363776721,2.37328219],"rotation":[0.0002839426,-0.7071065,0.707107067,0.0002839665],"scale":[2.01942778,0.314037025,0.706255],"name":"PivotDoor0"},{"mesh":2,"translation":[-1.55985439,0.0,3.031041],"rotation":[0.0,4.371139E-08,1.0,0.0],"scale":[0.106232,-0.083478,0.083478],"name":"Box007"},{"mesh":3,"translation":[7.0149684,-0.0196243953,-0.940761149],"scale":[3.188825,0.67399,2.462671],"name":"Box004"},{"mesh":4,"translation":[3.622723,0.0,2.88700128],"scale":[0.051853,0.30543,0.106689],"name":"slide"},{"mesh":5,"translation":[2.788185,0.0574569926,2.874018],"scale":[0.59777,0.59777,0.59777],"name":"marybase"},{"mesh":6,"translation":[2.79094243,0.10447637,2.89577937],"rotation":[0.7026918,-3.110041E-08,0.7114944,3.07156327E-08],"scale":[0.157737,-0.204214,0.360015],"name":"maryhandles"},{"mesh":7,"translation":[0.241093814,1.21882558,3.37991738],"rotation":[-0.941490352,1.14911956E-08,4.23141842E-08,0.337039977],"scale":[0.859322,-0.630601,0.443341],"name":"Box047"},{"mesh":8,"translation":[0.582253158,0.0,2.91999769],"scale":[1.0,1.0,0.284900039],"name":"Box048"},{"name":"Default light"}],"meshes":[{"primitives":[{"attributes":{"POSITION":1,"NORMAL":2,"TEXCOORD_0":3},"indices":0,"material":0}],"name":"Box001"},{"primitives":[{"attributes":{"POSITION":5,"NORMAL":6},"indices":4,"material":1}],"name":"PivotDoor0"},{"primitives":[{"attributes":{"POSITION":8,"NORMAL":9,"TEXCOORD_0":10},"indices":7,"material":2}],"name":"Box007"},{"primitives":[{"attributes":{"POSITION":12,"NORMAL":13,"TEXCOORD_0":14},"indices":11,"material":3}],"name":"Box004"},{"primitives":[{"attributes":{"POSITION":16,"NORMAL":17,"TEXCOORD_0":18},"indices":15}],"name":"slide"},{"primitives":[{"attributes":{"POSITION":20,"NORMAL":21,"TEXCOORD_0":22},"indices":19}],"name":"marybase"},{"primitives":[{"attributes":{"POSITION":24,"NORMAL":25,"TEXCOORD_0":26},"indices":23}],"name":"maryhandles"},{"primitives":[{"attributes":{"POSITION":28,"NORMAL":29,"TEXCOORD_0":30},"indices":27,"material":4},{"attributes":{"POSITION":32,"NORMAL":33,"TEXCOORD_0":34},"indices":31,"material":5}],"name":"Box047"},{"primitives":[{"attributes":{"POSITION":36,"NORMAL":37,"TEXCOORD_0":38},"indices":35}],"name":"Box048"}],"accessors":[{"bufferView":0,"componentType":5123,"count":879,"type":"SCALAR","name":"accessorIndices"},{"bufferView":1,"componentType":5126,"count":879,"max":[0.8697066,2.31089878,1.77458858],"min":[-0.8697066,0.0,-1.77458858],"type":"VEC3","name":"accessorPositions"},{"bufferView":1,"byteOffset":10548,"componentType":5126,"count":879,"type":"VEC3","name":"accessorNormals"},{"bufferView":2,"componentType":5126,"count":879,"type":"VEC2","name":"accessorUVs"},{"bufferView":0,"byteOffset":1760,"componentType":5123,"count":132,"type":"SCALAR","name":"accessorIndices"},{"bufferView":1,"byteOffset":21096,"componentType":5126,"count":132,"max":[0.177870631,0.403177321,0.0],"min":[-0.0133843087,-0.02641641,-1.02749848],"type":"VEC3","name":"accessorPositions"},{"bufferView":1,"byteOffset":22680,"componentType":5126,"count":132,"type":"VEC3","name":"accessorNormals"},{"bufferView":0,"byteOffset":2024,"componentType":5123,"count":408,"type":"SCALAR","name":"accessorIndices"},{"bufferView":1,"byteOffset":24264,"componentType":5126,"count":408,"max":[11.9914026,5.000247,0.25],"min":[-0.250000238,0.0,-4.78785944],"type":"VEC3","name":"accessorPositions"},{"bufferView":1,"byteOffset":29160,"componentType":5126,"count":408,"type":"VEC3","name":"accessorNormals"},{"bufferView":2,"byteOffset":7032,"componentType":5126,"count":408,"type":"VEC2","name":"accessorUVs"},{"bufferView":0,"byteOffset":2840,"componentType":5123,"count":12,"type":"SCALAR","name":"accessorIndices"},{"bufferView":1,"byteOffset":34056,"componentType":5126,"count":12,"max":[-1.63388336,2.43363118,1.79292858],"min":[-2.61860013,1.75912869,1.79292858],"type":"VEC3","name":"accessorPositions"},{"bufferView":1,"byteOffset":34200,"componentType":5126,"count":12,"type":"VEC3","name":"accessorNormals"},{"bufferView":2,"byteOffset":10296,"componentType":5126,"count":12,"type":"VEC2","name":"accessorUVs"},{"bufferView":0,"byteOffset":2864,"componentType":5123,"count":5796,"type":"SCALAR","name":"accessorIndices"},{"bufferView":1,"byteOffset":34344,"componentType":5126,"count":5796,"max":[4.27035141,1.93876386,8.017518],"min":[-0.15,0.0,-0.15],"type":"VEC3","name":"accessorPositions"},{"bufferView":1,"byteOffset":103896,"componentType":5126,"count":5796,"type":"VEC3","name":"accessorNormals"},{"bufferView":2,"byteOffset":10392,"componentType":5126,"count":5796,"type":"VEC2","name":"accessorUVs"},{"bufferView":0,"byteOffset":14456,"componentType":5123,"count":1188,"type":"SCALAR","name":"accessorIndices"},{"bufferView":1,"byteOffset":173448,"componentType":5126,"count":1188,"max":[1.030683,0.0761405453,1.01502478],"min":[-1.030683,-0.08503977,-1.01502466],"type":"VEC3","name":"accessorPositions"},{"bufferView":1,"byteOffset":187704,"componentType":5126,"count":1188,"type":"VEC3","name":"accessorNormals"},{"bufferView":2,"byteOffset":56760,"componentType":5126,"count":1188,"type":"VEC2","name":"accessorUVs"},{"bufferView":0,"byteOffset":16832,"componentType":5123,"count":1248,"type":"SCALAR","name":"accessorIndices"},{"bufferView":1,"byteOffset":201960,"componentType":5126,"count":1248,"max":[3.27445436,1.63520753,1.420958],"min":[-3.519064,-0.00248174556,-1.42095828],"type":"VEC3","name":"accessorPositions"},{"bufferView":1,"byteOffset":216936,"componentType":5126,"count":1248,"type":"VEC3","name":"accessorNormals"},{"bufferView":2,"byteOffset":66264,"componentType":5126,"count":1248,"type":"VEC2","name":"accessorUVs"},{"bufferView":0,"byteOffset":19328,"componentType":5123,"count":30,"type":"SCALAR","name":"accessorIndices"},{"bufferView":1,"byteOffset":231912,"componentType":5126,"count":30,"max":[1.07328975,0.6086667,0.00605081767],"min":[-1.07328975,0.0643354356,-0.3580833],"type":"VEC3","name":"accessorPositions"},{"bufferView":1,"byteOffset":232272,"componentType":5126,"count":30,"type":"VEC3","name":"accessorNormals"},{"bufferView":2,"byteOffset":76248,"componentType":5126,"count":30,"type":"VEC2","name":"accessorUVs"},{"bufferView":0,"byteOffset":19388,"componentType":5123,"count":6,"type":"SCALAR","name":"accessorIndices"},{"bufferView":1,"byteOffset":232632,"componentType":5126,"count":6,"max":[1.07328975,0.6086667,-0.0687456354],"min":[-1.07328975,0.107519187,-0.3580833],"type":"VEC3","name":"accessorPositions"},{"bufferView":1,"byteOffset":232704,"componentType":5126,"count":6,"type":"VEC3","name":"accessorNormals"},{"bufferView":2,"byteOffset":76488,"componentType":5126,"count":6,"type":"VEC2","name":"accessorUVs"},{"bufferView":0,"byteOffset":19400,"componentType":5123,"count":36,"type":"SCALAR","name":"accessorIndices"},{"bufferView":1,"byteOffset":232776,"componentType":5126,"count":36,"max":[3.97552037,0.0,4.630772],"min":[-3.97552037,-0.158584535,-4.630772],"type":"VEC3","name":"accessorPositions"},{"bufferView":1,"byteOffset":233208,"componentType":5126,"count":36,"type":"VEC3","name":"accessorNormals"},{"bufferView":2,"byteOffset":76536,"componentType":5126,"count":36,"type":"VEC2","name":"accessorUVs"}],"bufferViews":[{"buffer":0,"byteLength":19472,"name":"bufferViewScalar"},{"buffer":0,"byteOffset":19472,"byteLength":233640,"byteStride":12,"name":"bufferViewFloatVec3"},{"buffer":0,"byteOffset":253112,"byteLength":76824,"byteStride":8,"name":"bufferViewFloatVec2"}],"buffers":[{"uri":"soccer2.bin","byteLength":329936}],"materials":[{"pbrMetallicRoughness":{"baseColorFactor":[0.5882353,0.5882353,0.5882353,1.0],"metallicFactor":0.0,"roughnessFactor":0.450053632},"name":"24 - Default"},{"pbrMetallicRoughness":{"baseColorFactor":[0.7,0.7,0.7,1.0],"metallicFactor":0.0,"roughnessFactor":0.240331292},"name":"Default"},{"pbrMetallicRoughness":{"metallicFactor":0.0,"roughnessFactor":0.17577447},"name":"01 - Default"},{"pbrMetallicRoughness":{"baseColorTexture":{"index":0,"extensions":{"KHR_texture_transform":{"offset":[-2.9,-3.01360273],"scale":[6.8,-10.98],"texCoord":0}}},"metallicFactor":0.0,"roughnessFactor":0.450053632},"name":"22 - Default"},{"pbrMetallicRoughness":{"baseColorFactor":[0.0,0.0,0.0,1.0],"metallicFactor":0.0,"roughnessFactor":0.450053632},"name":"18 - Default"},{"pbrMetallicRoughness":{"baseColorTexture":{"index":1,"extensions":{"KHR_texture_transform":{"offset":[-0.0500000119,0.359000027],"scale":[1.1,-0.299999923],"texCoord":0}}},"metallicFactor":0.0,"roughnessFactor":0.450053632},"name":"17 - Default12341651"}],"textures":[{"sampler":0,"source":0,"name":"new DSC logo.jpg"},{"sampler":0,"source":1,"name":"sponsor.jpg"}],"images":[{"uri":"./new DSC logo.jpg"},{"uri":"./sponsor.jpg"}],"samplers":[{"magFilter":9729,"minFilter":9987}]}