{"asset":{"version":"2.0","generator":"babylon.js glTF exporter for 3dsmax 2020 v20200312.5"},"scene":0,"scenes":[{"nodes":[0,1,2]}],"nodes":[{"mesh":0,"translation":[3.05345631,0.0,0.874616861],"name":"Box008"},{"mesh":1,"translation":[3.15619,1.316856,1.185471],"scale":[0.437595,0.704945,0.437595],"name":"Box009"},{"name":"Default light"}],"meshes":[{"primitives":[{"attributes":{"POSITION":1,"NORMAL":2,"TEXCOORD_0":3},"indices":0,"material":0},{"attributes":{"POSITION":5,"NORMAL":6,"TEXCOORD_0":7},"indices":4,"material":1}],"name":"Box008"},{"primitives":[{"attributes":{"POSITION":9,"NORMAL":10,"TEXCOORD_0":11},"indices":8}],"name":"Box009"}],"accessors":[{"bufferView":0,"componentType":5123,"count":396,"type":"SCALAR","name":"accessorIndices"},{"bufferView":1,"componentType":5126,"count":396,"max":[0.143357635,1.62975419,0.6752062],"min":[-0.143357635,0.0,-0.143357635],"type":"VEC3","name":"accessorPositions"},{"bufferView":1,"byteOffset":4752,"componentType":5126,"count":396,"type":"VEC3","name":"accessorNormals"},{"bufferView":2,"componentType":5126,"count":396,"type":"VEC2","name":"accessorUVs"},{"bufferView":0,"byteOffset":792,"componentType":5123,"count":384,"type":"SCALAR","name":"accessorIndices"},{"bufferView":1,"byteOffset":9504,"componentType":5126,"count":384,"max":[0.095,1.45040369,0.901723146],"min":[-0.095,1.14263356,0.0972623751],"type":"VEC3","name":"accessorPositions"},{"bufferView":1,"byteOffset":14112,"componentType":5126,"count":384,"type":"VEC3","name":"accessorNormals"},{"bufferView":2,"byteOffset":3168,"componentType":5126,"count":384,"type":"VEC2","name":"accessorUVs"},{"bufferView":0,"byteOffset":1560,"componentType":5123,"count":1464,"type":"SCALAR","name":"accessorIndices"},{"bufferView":1,"byteOffset":18720,"componentType":5126,"count":1464,"max":[0.0117909107,0.6033012,0.359632462],"min":[-0.0117909107,0.0,-0.105632454],"type":"VEC3","name":"accessorPositions"},{"bufferView":1,"byteOffset":36288,"componentType":5126,"count":1464,"type":"VEC3","name":"accessorNormals"},{"bufferView":2,"byteOffset":6240,"componentType":5126,"count":1464,"type":"VEC2","name":"accessorUVs"}],"bufferViews":[{"buffer":0,"byteLength":4488,"name":"bufferViewScalar"},{"buffer":0,"byteOffset":4488,"byteLength":53856,"byteStride":12,"name":"bufferViewFloatVec3"},{"buffer":0,"byteOffset":58344,"byteLength":17952,"byteStride":8,"name":"bufferViewFloatVec2"}],"buffers":[{"uri":"mailbox.bin","byteLength":76296}],"materials":[{"pbrMetallicRoughness":{"baseColorFactor":[0.04,0.04,0.04,1.0],"metallicFactor":0.0,"roughnessFactor":0.450053632},"name":"Material #247"},{"pbrMetallicRoughness":{"baseColorFactor":[0.67578125,0.5859375,0.515625,1.0],"metallicFactor":0.0,"roughnessFactor":0.450053632},"name":"01 - Default"}]}