{"asset":{"version":"2.0","generator":"babylon.js glTF exporter for 3dsmax 2020 v20200312.5"},"scene":0,"scenes":[{"nodes":[0,1]}],"nodes":[{"mesh":0,"translation":[-0.195967644,0.145854861,-0.6107961],"rotation":[-0.7071068,-6.181724E-08,-6.181724E-08,0.7071067],"scale":[1.056745,5.097291,1.056745],"name":"Cylinder005"},{"name":"Default light"}],"meshes":[{"primitives":[{"attributes":{"POSITION":1,"NORMAL":2,"TEXCOORD_0":3},"indices":0,"material":0},{"attributes":{"POSITION":5,"NORMAL":6,"TEXCOORD_0":7},"indices":4,"material":1}],"name":"Cylinder005"}],"accessors":[{"bufferView":0,"componentType":5123,"count":21408,"type":"SCALAR","name":"accessorIndices"},{"bufferView":1,"componentType":5126,"count":21408,"max":[0.379192621,0.0361612737,1.14633489],"min":[-0.4095329,-0.123993374,-0.0894415155],"type":"VEC3","name":"accessorPositions"},{"bufferView":1,"byteOffset":256896,"componentType":5126,"count":21408,"type":"VEC3","name":"accessorNormals"},{"bufferView":2,"componentType":5126,"count":21408,"type":"VEC2","name":"accessorUVs"},{"bufferView":0,"byteOffset":42816,"componentType":5123,"count":8562,"type":"SCALAR","name":"accessorIndices"},{"bufferView":1,"byteOffset":513792,"componentType":5126,"count":8562,"max":[0.139146253,0.0255663358,0.137032315],"min":[-0.139146358,-0.113880523,-0.137032345],"type":"VEC3","name":"accessorPositions"},{"bufferView":1,"byteOffset":616536,"componentType":5126,"count":8562,"type":"VEC3","name":"accessorNormals"},{"bufferView":2,"byteOffset":171264,"componentType":5126,"count":8562,"type":"VEC2","name":"accessorUVs"}],"bufferViews":[{"buffer":0,"byteLength":59940,"name":"bufferViewScalar"},{"buffer":0,"byteOffset":59940,"byteLength":719280,"byteStride":12,"name":"bufferViewFloatVec3"},{"buffer":0,"byteOffset":779220,"byteLength":239760,"byteStride":8,"name":"bufferViewFloatVec2"}],"buffers":[{"uri":"trashcan.bin","byteLength":1018980}],"materials":[{"pbrMetallicRoughness":{"baseColorFactor":[0.12,0.12,0.704,1.0],"metallicFactor":0.0,"roughnessFactor":0.450053632},"name":"18 - Default"},{"pbrMetallicRoughness":{"baseColorFactor":[0.02,0.02,0.02,1.0],"metallicFactor":0.0,"roughnessFactor":0.450053632},"name":"Material #260"}]}